<mxfile host="app.diagrams.net" modified="2023-09-13T19:04:03.287Z" agent="Mozilla/5.0 (Windows NT 10.0; Win64; x64) AppleWebKit/537.36 (KHTML, like Gecko) Chrome/116.0.0.0 Safari/537.36 Edg/116.0.1938.76" etag="z0f4tc1AgASLEbFiYS28" version="21.7.4" type="device">
  <diagram name="PÃ¡gina-1" id="lB2wduT9VvVhqmphQo4D">
    <mxGraphModel dx="1698" dy="465" grid="1" gridSize="10" guides="1" tooltips="1" connect="1" arrows="1" fold="1" page="1" pageScale="1" pageWidth="827" pageHeight="1169" math="0" shadow="0">
      <root>
        <mxCell id="0" />
        <mxCell id="1" parent="0" />
        <mxCell id="a89pYtSjrWbsQ95x3HnV-1" value="Vendedor" style="rounded=0;whiteSpace=wrap;html=1;" parent="1" vertex="1">
          <mxGeometry x="-51.879999999999995" y="440" width="60" height="30" as="geometry" />
        </mxCell>
        <mxCell id="a89pYtSjrWbsQ95x3HnV-2" value="E-mail" style="ellipse;whiteSpace=wrap;html=1;" parent="1" vertex="1">
          <mxGeometry x="-46.879999999999995" y="390" width="50" height="20" as="geometry" />
        </mxCell>
        <mxCell id="a89pYtSjrWbsQ95x3HnV-4" value="Direccion" style="ellipse;whiteSpace=wrap;html=1;" parent="1" vertex="1">
          <mxGeometry x="-121.88" y="410" width="60" height="20" as="geometry" />
        </mxCell>
        <mxCell id="a89pYtSjrWbsQ95x3HnV-5" value="Nombre" style="ellipse;whiteSpace=wrap;html=1;" parent="1" vertex="1">
          <mxGeometry x="-121.88" y="445" width="50" height="20" as="geometry" />
        </mxCell>
        <mxCell id="a89pYtSjrWbsQ95x3HnV-6" value="Telefono" style="ellipse;whiteSpace=wrap;html=1;" parent="1" vertex="1">
          <mxGeometry x="-121.88" y="480" width="60" height="20" as="geometry" />
        </mxCell>
        <mxCell id="a89pYtSjrWbsQ95x3HnV-7" value="&lt;b&gt;&lt;u&gt;ID. Vendedor&lt;/u&gt;&lt;/b&gt;" style="ellipse;whiteSpace=wrap;html=1;" parent="1" vertex="1">
          <mxGeometry x="-65.63" y="500" width="87.5" height="30" as="geometry" />
        </mxCell>
        <mxCell id="a89pYtSjrWbsQ95x3HnV-8" value="" style="endArrow=none;html=1;rounded=0;exitX=0.5;exitY=0;exitDx=0;exitDy=0;entryX=0.5;entryY=1;entryDx=0;entryDy=0;" parent="1" source="a89pYtSjrWbsQ95x3HnV-7" target="a89pYtSjrWbsQ95x3HnV-1" edge="1">
          <mxGeometry width="50" height="50" relative="1" as="geometry">
            <mxPoint x="-151.88" y="590" as="sourcePoint" />
            <mxPoint x="-101.88" y="540" as="targetPoint" />
          </mxGeometry>
        </mxCell>
        <mxCell id="a89pYtSjrWbsQ95x3HnV-9" value="" style="endArrow=none;html=1;rounded=0;exitX=1;exitY=0;exitDx=0;exitDy=0;entryX=0;entryY=1;entryDx=0;entryDy=0;" parent="1" source="a89pYtSjrWbsQ95x3HnV-6" target="a89pYtSjrWbsQ95x3HnV-1" edge="1">
          <mxGeometry width="50" height="50" relative="1" as="geometry">
            <mxPoint x="-141.88" y="600" as="sourcePoint" />
            <mxPoint x="-91.88" y="550" as="targetPoint" />
          </mxGeometry>
        </mxCell>
        <mxCell id="a89pYtSjrWbsQ95x3HnV-10" value="" style="endArrow=none;html=1;rounded=0;exitX=1;exitY=0.5;exitDx=0;exitDy=0;entryX=0;entryY=0.5;entryDx=0;entryDy=0;" parent="1" source="a89pYtSjrWbsQ95x3HnV-5" target="a89pYtSjrWbsQ95x3HnV-1" edge="1">
          <mxGeometry width="50" height="50" relative="1" as="geometry">
            <mxPoint x="-131.88" y="610" as="sourcePoint" />
            <mxPoint x="-81.88" y="560" as="targetPoint" />
          </mxGeometry>
        </mxCell>
        <mxCell id="a89pYtSjrWbsQ95x3HnV-11" value="" style="endArrow=none;html=1;rounded=0;entryX=1;entryY=1;entryDx=0;entryDy=0;exitX=0;exitY=0;exitDx=0;exitDy=0;" parent="1" source="a89pYtSjrWbsQ95x3HnV-1" target="a89pYtSjrWbsQ95x3HnV-4" edge="1">
          <mxGeometry width="50" height="50" relative="1" as="geometry">
            <mxPoint x="-121.88" y="620" as="sourcePoint" />
            <mxPoint x="-71.88" y="570" as="targetPoint" />
          </mxGeometry>
        </mxCell>
        <mxCell id="a89pYtSjrWbsQ95x3HnV-12" value="" style="endArrow=none;html=1;rounded=0;entryX=0.5;entryY=1;entryDx=0;entryDy=0;exitX=0.5;exitY=0;exitDx=0;exitDy=0;" parent="1" source="a89pYtSjrWbsQ95x3HnV-1" target="a89pYtSjrWbsQ95x3HnV-2" edge="1">
          <mxGeometry width="50" height="50" relative="1" as="geometry">
            <mxPoint x="-111.88" y="630" as="sourcePoint" />
            <mxPoint x="-61.879999999999995" y="580" as="targetPoint" />
          </mxGeometry>
        </mxCell>
        <mxCell id="a89pYtSjrWbsQ95x3HnV-13" value="Cliente" style="rounded=0;whiteSpace=wrap;html=1;" parent="1" vertex="1">
          <mxGeometry x="-436.25" y="690" width="60" height="30" as="geometry" />
        </mxCell>
        <mxCell id="a89pYtSjrWbsQ95x3HnV-14" value="E-mail" style="ellipse;whiteSpace=wrap;html=1;" parent="1" vertex="1">
          <mxGeometry x="-490" y="640" width="50" height="20" as="geometry" />
        </mxCell>
        <mxCell id="a89pYtSjrWbsQ95x3HnV-15" value="Direccion" style="ellipse;whiteSpace=wrap;html=1;" parent="1" vertex="1">
          <mxGeometry x="-436.25" y="640" width="60" height="20" as="geometry" />
        </mxCell>
        <mxCell id="a89pYtSjrWbsQ95x3HnV-16" value="Nombre" style="ellipse;whiteSpace=wrap;html=1;" parent="1" vertex="1">
          <mxGeometry x="-366.25" y="640" width="50" height="20" as="geometry" />
        </mxCell>
        <mxCell id="a89pYtSjrWbsQ95x3HnV-17" value="Telefono" style="ellipse;whiteSpace=wrap;html=1;" parent="1" vertex="1">
          <mxGeometry x="-366.25" y="730" width="60" height="20" as="geometry" />
        </mxCell>
        <mxCell id="a89pYtSjrWbsQ95x3HnV-18" value="&lt;b&gt;&lt;u&gt;ID. Cliente&lt;/u&gt;&lt;/b&gt;" style="ellipse;whiteSpace=wrap;html=1;" parent="1" vertex="1">
          <mxGeometry x="-450" y="750" width="87.5" height="30" as="geometry" />
        </mxCell>
        <mxCell id="a89pYtSjrWbsQ95x3HnV-19" value="" style="endArrow=none;html=1;rounded=0;exitX=0.5;exitY=0;exitDx=0;exitDy=0;entryX=0.5;entryY=1;entryDx=0;entryDy=0;" parent="1" source="a89pYtSjrWbsQ95x3HnV-18" target="a89pYtSjrWbsQ95x3HnV-13" edge="1">
          <mxGeometry width="50" height="50" relative="1" as="geometry">
            <mxPoint x="-536.25" y="840" as="sourcePoint" />
            <mxPoint x="-486.25" y="790" as="targetPoint" />
          </mxGeometry>
        </mxCell>
        <mxCell id="a89pYtSjrWbsQ95x3HnV-20" value="" style="endArrow=none;html=1;rounded=0;exitX=0;exitY=0;exitDx=0;exitDy=0;entryX=1;entryY=1;entryDx=0;entryDy=0;" parent="1" source="a89pYtSjrWbsQ95x3HnV-17" target="a89pYtSjrWbsQ95x3HnV-13" edge="1">
          <mxGeometry width="50" height="50" relative="1" as="geometry">
            <mxPoint x="-526.25" y="850" as="sourcePoint" />
            <mxPoint x="-476.25" y="800" as="targetPoint" />
          </mxGeometry>
        </mxCell>
        <mxCell id="a89pYtSjrWbsQ95x3HnV-21" value="" style="endArrow=none;html=1;rounded=0;exitX=0;exitY=0.5;exitDx=0;exitDy=0;entryX=1;entryY=0;entryDx=0;entryDy=0;" parent="1" source="a89pYtSjrWbsQ95x3HnV-16" target="a89pYtSjrWbsQ95x3HnV-13" edge="1">
          <mxGeometry width="50" height="50" relative="1" as="geometry">
            <mxPoint x="-516.25" y="860" as="sourcePoint" />
            <mxPoint x="-466.25" y="810" as="targetPoint" />
          </mxGeometry>
        </mxCell>
        <mxCell id="a89pYtSjrWbsQ95x3HnV-22" value="" style="endArrow=none;html=1;rounded=0;entryX=0.5;entryY=1;entryDx=0;entryDy=0;exitX=0.5;exitY=0;exitDx=0;exitDy=0;" parent="1" source="a89pYtSjrWbsQ95x3HnV-13" target="a89pYtSjrWbsQ95x3HnV-15" edge="1">
          <mxGeometry width="50" height="50" relative="1" as="geometry">
            <mxPoint x="-506.25" y="870" as="sourcePoint" />
            <mxPoint x="-456.25" y="820" as="targetPoint" />
          </mxGeometry>
        </mxCell>
        <mxCell id="a89pYtSjrWbsQ95x3HnV-23" value="" style="endArrow=none;html=1;rounded=0;entryX=1;entryY=1;entryDx=0;entryDy=0;exitX=0;exitY=0;exitDx=0;exitDy=0;" parent="1" source="a89pYtSjrWbsQ95x3HnV-13" target="a89pYtSjrWbsQ95x3HnV-14" edge="1">
          <mxGeometry width="50" height="50" relative="1" as="geometry">
            <mxPoint x="-496.25" y="880" as="sourcePoint" />
            <mxPoint x="-446.25" y="830" as="targetPoint" />
          </mxGeometry>
        </mxCell>
        <mxCell id="a89pYtSjrWbsQ95x3HnV-25" value="Producto" style="rounded=0;whiteSpace=wrap;html=1;" parent="1" vertex="1">
          <mxGeometry x="271.87" y="440" width="60" height="30" as="geometry" />
        </mxCell>
        <mxCell id="a89pYtSjrWbsQ95x3HnV-26" value="Nombre" style="ellipse;whiteSpace=wrap;html=1;" parent="1" vertex="1">
          <mxGeometry x="274.37" y="390" width="55" height="20" as="geometry" />
        </mxCell>
        <mxCell id="a89pYtSjrWbsQ95x3HnV-27" value="Precio" style="ellipse;whiteSpace=wrap;html=1;" parent="1" vertex="1">
          <mxGeometry x="343.75" y="400" width="50" height="20" as="geometry" />
        </mxCell>
        <mxCell id="a89pYtSjrWbsQ95x3HnV-28" value="Categoria" style="ellipse;whiteSpace=wrap;html=1;" parent="1" vertex="1">
          <mxGeometry x="351.87" y="445" width="60" height="20" as="geometry" />
        </mxCell>
        <mxCell id="a89pYtSjrWbsQ95x3HnV-29" value="ID. Producto" style="ellipse;whiteSpace=wrap;html=1;" parent="1" vertex="1">
          <mxGeometry x="343.75" y="480" width="90" height="20" as="geometry" />
        </mxCell>
        <mxCell id="a89pYtSjrWbsQ95x3HnV-30" value="&lt;u&gt;&lt;b&gt;ID. Vendedor&lt;/b&gt;&lt;/u&gt;" style="ellipse;whiteSpace=wrap;html=1;" parent="1" vertex="1">
          <mxGeometry x="260" y="500" width="83.75" height="30" as="geometry" />
        </mxCell>
        <mxCell id="a89pYtSjrWbsQ95x3HnV-31" value="" style="endArrow=none;html=1;rounded=0;exitX=0.5;exitY=0;exitDx=0;exitDy=0;entryX=0.5;entryY=1;entryDx=0;entryDy=0;" parent="1" source="a89pYtSjrWbsQ95x3HnV-30" target="a89pYtSjrWbsQ95x3HnV-25" edge="1">
          <mxGeometry width="50" height="50" relative="1" as="geometry">
            <mxPoint x="171.87" y="590" as="sourcePoint" />
            <mxPoint x="221.87" y="540" as="targetPoint" />
          </mxGeometry>
        </mxCell>
        <mxCell id="a89pYtSjrWbsQ95x3HnV-32" value="" style="endArrow=none;html=1;rounded=0;exitX=0;exitY=0;exitDx=0;exitDy=0;entryX=1;entryY=1;entryDx=0;entryDy=0;" parent="1" source="a89pYtSjrWbsQ95x3HnV-29" target="a89pYtSjrWbsQ95x3HnV-25" edge="1">
          <mxGeometry width="50" height="50" relative="1" as="geometry">
            <mxPoint x="181.87" y="600" as="sourcePoint" />
            <mxPoint x="231.87" y="550" as="targetPoint" />
          </mxGeometry>
        </mxCell>
        <mxCell id="a89pYtSjrWbsQ95x3HnV-33" value="" style="endArrow=none;html=1;rounded=0;exitX=0;exitY=0.5;exitDx=0;exitDy=0;entryX=1;entryY=0.5;entryDx=0;entryDy=0;" parent="1" source="a89pYtSjrWbsQ95x3HnV-28" target="a89pYtSjrWbsQ95x3HnV-25" edge="1">
          <mxGeometry width="50" height="50" relative="1" as="geometry">
            <mxPoint x="191.87" y="610" as="sourcePoint" />
            <mxPoint x="241.87" y="560" as="targetPoint" />
          </mxGeometry>
        </mxCell>
        <mxCell id="a89pYtSjrWbsQ95x3HnV-34" value="" style="endArrow=none;html=1;rounded=0;entryX=0;entryY=1;entryDx=0;entryDy=0;exitX=1;exitY=0;exitDx=0;exitDy=0;" parent="1" source="a89pYtSjrWbsQ95x3HnV-25" target="a89pYtSjrWbsQ95x3HnV-27" edge="1">
          <mxGeometry width="50" height="50" relative="1" as="geometry">
            <mxPoint x="201.87" y="620" as="sourcePoint" />
            <mxPoint x="251.87" y="570" as="targetPoint" />
          </mxGeometry>
        </mxCell>
        <mxCell id="a89pYtSjrWbsQ95x3HnV-35" value="" style="endArrow=none;html=1;rounded=0;entryX=0.5;entryY=1;entryDx=0;entryDy=0;exitX=0.5;exitY=0;exitDx=0;exitDy=0;" parent="1" source="a89pYtSjrWbsQ95x3HnV-25" target="a89pYtSjrWbsQ95x3HnV-26" edge="1">
          <mxGeometry width="50" height="50" relative="1" as="geometry">
            <mxPoint x="211.87" y="630" as="sourcePoint" />
            <mxPoint x="261.87" y="580" as="targetPoint" />
          </mxGeometry>
        </mxCell>
        <mxCell id="a89pYtSjrWbsQ95x3HnV-36" value="Pedido" style="rounded=0;whiteSpace=wrap;html=1;" parent="1" vertex="1">
          <mxGeometry x="276.87" y="660" width="60" height="30" as="geometry" />
        </mxCell>
        <mxCell id="a89pYtSjrWbsQ95x3HnV-39" value="&lt;u&gt;&lt;b&gt;Num. Pedido&lt;/b&gt;&lt;/u&gt;" style="ellipse;whiteSpace=wrap;html=1;" parent="1" vertex="1">
          <mxGeometry x="366.87" y="640" width="90" height="30" as="geometry" />
        </mxCell>
        <mxCell id="a89pYtSjrWbsQ95x3HnV-40" value="Fecha de Pedido" style="ellipse;whiteSpace=wrap;html=1;" parent="1" vertex="1">
          <mxGeometry x="366.87" y="680" width="90" height="30" as="geometry" />
        </mxCell>
        <mxCell id="a89pYtSjrWbsQ95x3HnV-41" value="Fecha de Entrega" style="ellipse;whiteSpace=wrap;html=1;" parent="1" vertex="1">
          <mxGeometry x="260" y="720" width="93.75" height="30" as="geometry" />
        </mxCell>
        <mxCell id="a89pYtSjrWbsQ95x3HnV-42" value="" style="endArrow=none;html=1;rounded=0;exitX=0.5;exitY=0;exitDx=0;exitDy=0;entryX=0.5;entryY=1;entryDx=0;entryDy=0;" parent="1" source="a89pYtSjrWbsQ95x3HnV-41" target="a89pYtSjrWbsQ95x3HnV-36" edge="1">
          <mxGeometry width="50" height="50" relative="1" as="geometry">
            <mxPoint x="176.87" y="810" as="sourcePoint" />
            <mxPoint x="226.87" y="760" as="targetPoint" />
          </mxGeometry>
        </mxCell>
        <mxCell id="a89pYtSjrWbsQ95x3HnV-43" value="" style="endArrow=none;html=1;rounded=0;exitX=0;exitY=0.5;exitDx=0;exitDy=0;entryX=1;entryY=1;entryDx=0;entryDy=0;" parent="1" source="a89pYtSjrWbsQ95x3HnV-40" target="a89pYtSjrWbsQ95x3HnV-36" edge="1">
          <mxGeometry width="50" height="50" relative="1" as="geometry">
            <mxPoint x="186.87" y="820" as="sourcePoint" />
            <mxPoint x="236.87" y="770" as="targetPoint" />
          </mxGeometry>
        </mxCell>
        <mxCell id="a89pYtSjrWbsQ95x3HnV-44" value="" style="endArrow=none;html=1;rounded=0;exitX=0;exitY=0.5;exitDx=0;exitDy=0;entryX=1;entryY=0;entryDx=0;entryDy=0;" parent="1" source="a89pYtSjrWbsQ95x3HnV-39" target="a89pYtSjrWbsQ95x3HnV-36" edge="1">
          <mxGeometry width="50" height="50" relative="1" as="geometry">
            <mxPoint x="196.87" y="830" as="sourcePoint" />
            <mxPoint x="246.87" y="780" as="targetPoint" />
          </mxGeometry>
        </mxCell>
        <mxCell id="a89pYtSjrWbsQ95x3HnV-50" value="Venta" style="rounded=0;whiteSpace=wrap;html=1;" parent="1" vertex="1">
          <mxGeometry x="-53.129999999999995" y="690" width="60" height="30" as="geometry" />
        </mxCell>
        <mxCell id="a89pYtSjrWbsQ95x3HnV-51" value="&lt;u&gt;&lt;b&gt;Folio&lt;/b&gt;&lt;/u&gt;" style="ellipse;whiteSpace=wrap;html=1;" parent="1" vertex="1">
          <mxGeometry x="6.8700000000000045" y="645" width="90" height="30" as="geometry" />
        </mxCell>
        <mxCell id="a89pYtSjrWbsQ95x3HnV-52" value="Producto" style="ellipse;whiteSpace=wrap;html=1;" parent="1" vertex="1">
          <mxGeometry x="-143.13" y="740" width="90" height="30" as="geometry" />
        </mxCell>
        <mxCell id="a89pYtSjrWbsQ95x3HnV-53" value="Vendedor" style="ellipse;whiteSpace=wrap;html=1;" parent="1" vertex="1">
          <mxGeometry x="6.8700000000000045" y="740" width="93.75" height="30" as="geometry" />
        </mxCell>
        <mxCell id="a89pYtSjrWbsQ95x3HnV-54" value="" style="endArrow=none;html=1;rounded=0;exitX=0;exitY=0.5;exitDx=0;exitDy=0;entryX=1;entryY=1;entryDx=0;entryDy=0;" parent="1" source="a89pYtSjrWbsQ95x3HnV-53" target="a89pYtSjrWbsQ95x3HnV-50" edge="1">
          <mxGeometry width="50" height="50" relative="1" as="geometry">
            <mxPoint x="-153.13" y="840" as="sourcePoint" />
            <mxPoint x="-103.13" y="790" as="targetPoint" />
          </mxGeometry>
        </mxCell>
        <mxCell id="a89pYtSjrWbsQ95x3HnV-55" value="" style="endArrow=none;html=1;rounded=0;exitX=1;exitY=0.5;exitDx=0;exitDy=0;entryX=0;entryY=1;entryDx=0;entryDy=0;" parent="1" source="a89pYtSjrWbsQ95x3HnV-52" target="a89pYtSjrWbsQ95x3HnV-50" edge="1">
          <mxGeometry width="50" height="50" relative="1" as="geometry">
            <mxPoint x="-143.13" y="850" as="sourcePoint" />
            <mxPoint x="-93.13" y="800" as="targetPoint" />
          </mxGeometry>
        </mxCell>
        <mxCell id="a89pYtSjrWbsQ95x3HnV-56" value="" style="endArrow=none;html=1;rounded=0;exitX=0;exitY=0.5;exitDx=0;exitDy=0;entryX=1;entryY=0;entryDx=0;entryDy=0;" parent="1" source="a89pYtSjrWbsQ95x3HnV-51" target="a89pYtSjrWbsQ95x3HnV-50" edge="1">
          <mxGeometry width="50" height="50" relative="1" as="geometry">
            <mxPoint x="-133.13" y="860" as="sourcePoint" />
            <mxPoint x="-83.13" y="810" as="targetPoint" />
          </mxGeometry>
        </mxCell>
        <mxCell id="a89pYtSjrWbsQ95x3HnV-57" value="Cliente" style="ellipse;whiteSpace=wrap;html=1;" parent="1" vertex="1">
          <mxGeometry x="-146.26" y="645" width="93.13" height="30" as="geometry" />
        </mxCell>
        <mxCell id="a89pYtSjrWbsQ95x3HnV-58" value="" style="endArrow=none;html=1;rounded=0;exitX=0;exitY=0;exitDx=0;exitDy=0;entryX=1;entryY=0.5;entryDx=0;entryDy=0;" parent="1" source="a89pYtSjrWbsQ95x3HnV-50" target="a89pYtSjrWbsQ95x3HnV-57" edge="1">
          <mxGeometry width="50" height="50" relative="1" as="geometry">
            <mxPoint x="30" y="690" as="sourcePoint" />
            <mxPoint x="80" y="640" as="targetPoint" />
          </mxGeometry>
        </mxCell>
        <mxCell id="a89pYtSjrWbsQ95x3HnV-59" value="Realiza" style="rhombus;whiteSpace=wrap;html=1;" parent="1" vertex="1">
          <mxGeometry x="100" y="545" width="80" height="80" as="geometry" />
        </mxCell>
        <mxCell id="a89pYtSjrWbsQ95x3HnV-61" value="" style="endArrow=classic;html=1;rounded=0;exitX=0.5;exitY=1;exitDx=0;exitDy=0;entryX=1;entryY=0.5;entryDx=0;entryDy=0;" parent="1" source="a89pYtSjrWbsQ95x3HnV-59" target="a89pYtSjrWbsQ95x3HnV-50" edge="1">
          <mxGeometry width="50" height="50" relative="1" as="geometry">
            <mxPoint x="40" y="620" as="sourcePoint" />
            <mxPoint x="140" y="650" as="targetPoint" />
            <Array as="points">
              <mxPoint x="140" y="705" />
            </Array>
          </mxGeometry>
        </mxCell>
        <mxCell id="a89pYtSjrWbsQ95x3HnV-64" value="Empieza" style="rhombus;whiteSpace=wrap;html=1;" parent="1" vertex="1">
          <mxGeometry x="-250" y="665" width="80" height="80" as="geometry" />
        </mxCell>
        <mxCell id="a89pYtSjrWbsQ95x3HnV-490" value="" style="endArrow=classic;html=1;rounded=0;exitX=1;exitY=0.5;exitDx=0;exitDy=0;entryX=0;entryY=0.5;entryDx=0;entryDy=0;" parent="1" source="a89pYtSjrWbsQ95x3HnV-13" target="a89pYtSjrWbsQ95x3HnV-64" edge="1">
          <mxGeometry width="50" height="50" relative="1" as="geometry">
            <mxPoint x="-320" y="770" as="sourcePoint" />
            <mxPoint x="-270" y="720" as="targetPoint" />
          </mxGeometry>
        </mxCell>
        <mxCell id="a89pYtSjrWbsQ95x3HnV-491" value="" style="endArrow=classic;html=1;rounded=0;entryX=0;entryY=0.5;entryDx=0;entryDy=0;exitX=1;exitY=0.5;exitDx=0;exitDy=0;" parent="1" source="a89pYtSjrWbsQ95x3HnV-64" target="a89pYtSjrWbsQ95x3HnV-50" edge="1">
          <mxGeometry width="50" height="50" relative="1" as="geometry">
            <mxPoint x="-320" y="770" as="sourcePoint" />
            <mxPoint x="-270" y="720" as="targetPoint" />
          </mxGeometry>
        </mxCell>
        <mxCell id="a89pYtSjrWbsQ95x3HnV-492" value="Tiene" style="rhombus;whiteSpace=wrap;html=1;" parent="1" vertex="1">
          <mxGeometry x="100" y="415" width="80" height="80" as="geometry" />
        </mxCell>
        <mxCell id="a89pYtSjrWbsQ95x3HnV-494" value="" style="endArrow=classic;startArrow=classic;html=1;rounded=0;entryX=0;entryY=0.5;entryDx=0;entryDy=0;exitX=1;exitY=0.5;exitDx=0;exitDy=0;" parent="1" source="a89pYtSjrWbsQ95x3HnV-1" target="a89pYtSjrWbsQ95x3HnV-492" edge="1">
          <mxGeometry width="50" height="50" relative="1" as="geometry">
            <mxPoint x="-20" y="680" as="sourcePoint" />
            <mxPoint x="30" y="630" as="targetPoint" />
          </mxGeometry>
        </mxCell>
        <mxCell id="a89pYtSjrWbsQ95x3HnV-495" value="" style="endArrow=classic;html=1;rounded=0;entryX=0;entryY=0.5;entryDx=0;entryDy=0;exitX=1;exitY=0.5;exitDx=0;exitDy=0;" parent="1" source="a89pYtSjrWbsQ95x3HnV-492" target="a89pYtSjrWbsQ95x3HnV-25" edge="1">
          <mxGeometry width="50" height="50" relative="1" as="geometry">
            <mxPoint x="-20" y="680" as="sourcePoint" />
            <mxPoint x="30" y="630" as="targetPoint" />
          </mxGeometry>
        </mxCell>
        <mxCell id="a89pYtSjrWbsQ95x3HnV-496" value="" style="endArrow=classic;html=1;rounded=0;entryX=0.5;entryY=0;entryDx=0;entryDy=0;exitX=1;exitY=0.5;exitDx=0;exitDy=0;" parent="1" source="a89pYtSjrWbsQ95x3HnV-1" target="a89pYtSjrWbsQ95x3HnV-59" edge="1">
          <mxGeometry width="50" height="50" relative="1" as="geometry">
            <mxPoint x="60" y="460" as="sourcePoint" />
            <mxPoint x="30" y="630" as="targetPoint" />
            <Array as="points">
              <mxPoint x="60" y="455" />
              <mxPoint x="60" y="520" />
              <mxPoint x="140" y="520" />
            </Array>
          </mxGeometry>
        </mxCell>
        <mxCell id="a89pYtSjrWbsQ95x3HnV-497" value="Tiene" style="rhombus;whiteSpace=wrap;html=1;" parent="1" vertex="1">
          <mxGeometry x="196.87" y="545" width="80" height="80" as="geometry" />
        </mxCell>
        <mxCell id="a89pYtSjrWbsQ95x3HnV-498" value="" style="endArrow=none;html=1;rounded=0;exitX=0.5;exitY=0;exitDx=0;exitDy=0;entryX=0;entryY=0.5;entryDx=0;entryDy=0;" parent="1" source="a89pYtSjrWbsQ95x3HnV-497" target="a89pYtSjrWbsQ95x3HnV-25" edge="1">
          <mxGeometry width="50" height="50" relative="1" as="geometry">
            <mxPoint x="80" y="650" as="sourcePoint" />
            <mxPoint x="240" y="470" as="targetPoint" />
            <Array as="points">
              <mxPoint x="237" y="455" />
            </Array>
          </mxGeometry>
        </mxCell>
        <mxCell id="a89pYtSjrWbsQ95x3HnV-500" value="" style="endArrow=classic;startArrow=classic;html=1;rounded=0;entryX=0.5;entryY=1;entryDx=0;entryDy=0;exitX=0;exitY=0.5;exitDx=0;exitDy=0;" parent="1" source="a89pYtSjrWbsQ95x3HnV-36" target="a89pYtSjrWbsQ95x3HnV-497" edge="1">
          <mxGeometry width="50" height="50" relative="1" as="geometry">
            <mxPoint x="260" y="630" as="sourcePoint" />
            <mxPoint x="310" y="580" as="targetPoint" />
            <Array as="points">
              <mxPoint x="237" y="675" />
            </Array>
          </mxGeometry>
        </mxCell>
        <mxCell id="4cW0Rf6uCK0wcoYfDjqu-1" value="(1,n)" style="text;html=1;strokeColor=none;fillColor=none;align=center;verticalAlign=middle;whiteSpace=wrap;rounded=0;" vertex="1" parent="1">
          <mxGeometry x="-350" y="680" width="60" height="30" as="geometry" />
        </mxCell>
        <mxCell id="4cW0Rf6uCK0wcoYfDjqu-2" value="(1,n)" style="text;html=1;strokeColor=none;fillColor=none;align=center;verticalAlign=middle;whiteSpace=wrap;rounded=0;" vertex="1" parent="1">
          <mxGeometry x="-146.26" y="680" width="60" height="30" as="geometry" />
        </mxCell>
        <mxCell id="4cW0Rf6uCK0wcoYfDjqu-3" value="(0,1)" style="text;html=1;strokeColor=none;fillColor=none;align=center;verticalAlign=middle;whiteSpace=wrap;rounded=0;" vertex="1" parent="1">
          <mxGeometry x="36.87" y="680" width="60" height="30" as="geometry" />
        </mxCell>
        <mxCell id="4cW0Rf6uCK0wcoYfDjqu-4" value="(1,n)" style="text;html=1;strokeColor=none;fillColor=none;align=center;verticalAlign=middle;whiteSpace=wrap;rounded=0;" vertex="1" parent="1">
          <mxGeometry x="70" y="495" width="60" height="30" as="geometry" />
        </mxCell>
        <mxCell id="4cW0Rf6uCK0wcoYfDjqu-5" value="(1,n)" style="text;html=1;strokeColor=none;fillColor=none;align=center;verticalAlign=middle;whiteSpace=wrap;rounded=0;" vertex="1" parent="1">
          <mxGeometry x="21.869999999999997" y="430" width="60" height="30" as="geometry" />
        </mxCell>
        <mxCell id="4cW0Rf6uCK0wcoYfDjqu-6" value="(0,1)" style="text;html=1;strokeColor=none;fillColor=none;align=center;verticalAlign=middle;whiteSpace=wrap;rounded=0;" vertex="1" parent="1">
          <mxGeometry x="196.87" y="430" width="60" height="30" as="geometry" />
        </mxCell>
        <mxCell id="4cW0Rf6uCK0wcoYfDjqu-7" value="(1,n)" style="text;html=1;strokeColor=none;fillColor=none;align=center;verticalAlign=middle;whiteSpace=wrap;rounded=0;" vertex="1" parent="1">
          <mxGeometry x="190" y="490" width="60" height="30" as="geometry" />
        </mxCell>
        <mxCell id="4cW0Rf6uCK0wcoYfDjqu-8" value="(1,n)" style="text;html=1;strokeColor=none;fillColor=none;align=center;verticalAlign=middle;whiteSpace=wrap;rounded=0;" vertex="1" parent="1">
          <mxGeometry x="190" y="640" width="60" height="30" as="geometry" />
        </mxCell>
      </root>
    </mxGraphModel>
  </diagram>
</mxfile>
